<svg id="visual" viewBox="0 0 900 600" width="900" height="600" xmlns="http://www.w3.org/2000/svg" xmlns:xlink="http://www.w3.org/1999/xlink" version="1.1"><rect x="0" y="0" width="900" height="600" fill="#001220"></rect><defs><linearGradient id="grad1_0" x1="33.3%" y1="0%" x2="100%" y2="100%"><stop offset="20%" stop-color="#001220" stop-opacity="1"></stop><stop offset="80%" stop-color="#001220" stop-opacity="1"></stop></linearGradient></defs><defs><linearGradient id="grad2_0" x1="0%" y1="0%" x2="66.7%" y2="100%"><stop offset="20%" stop-color="#001220" stop-opacity="1"></stop><stop offset="80%" stop-color="#001220" stop-opacity="1"></stop></linearGradient></defs><g transform="translate(900, 0)"><path d="M0 189.3C-27.7 175.3 -55.4 161.2 -85 147.2C-114.6 133.2 -146.2 119.2 -163.9 94.6C-181.6 70.1 -185.5 35.1 -189.3 0L0 0Z" fill="#575276"></path></g><g transform="translate(0, 600)"><path d="M0 -189.3C36.2 -186.1 72.4 -183 94.6 -163.9C116.9 -144.9 125.1 -110 138.6 -80C152 -50 170.6 -25 189.3 0L0 0Z" fill="#575276"></path></g></svg>